<svg width="594" height="444" viewBox="0 0 594 444" fill="none" xmlns="http://www.w3.org/2000/svg">
<path d="M77.7005 0H0L208.565 410.015L271.301 298.193L311.896 225.837L438.599 0H367.033L278.086 156.189L237.174 228.03L214.699 267.496L77.7005 0Z" fill="#0B4692"/>
<path d="M343.518 369.452L551.06 0H477.449L331.25 260.213L289.585 334.37L227.99 444H491.762L594 259.822H521.411L460.069 369.452H343.518Z" fill="#1B75C1"/>
<path d="M219.811 195.141L261.728 123.881L198.341 0L121.663 1.0963L219.811 195.141Z" fill="#424240"/>
<path d="M311.896 225.837L271.301 298.193L289.585 334.37L331.25 260.213L311.896 225.837Z" fill="#424240"/>
<path d="M442.688 259.822L402.816 332.178H480.925L521.411 259.822H442.688Z" fill="#424240"/>
<path d="M237.174 228.03L278.086 156.189L261.728 123.881L219.811 195.141L237.174 228.03Z" fill="#424240"/>
</svg>
